<svg width="103" height="30" viewBox="0 0 103 30" fill="none" xmlns="http://www.w3.org/2000/svg">
<g clip-path="url(#clip0_3260_70483)">
<path fill-rule="evenodd" clip-rule="evenodd" d="M3.62695 0.18745C10.3147 -0.120459 15.1181 -0.274414 18.0371 -0.274414C23.4686 -0.274414 27.3667 0.341404 29.7315 1.57304C31.8499 2.68151 32.9091 4.3627 32.9091 6.61659C32.9091 7.97139 32.5519 9.11065 31.8376 10.0344C31.1356 10.9458 30.0579 11.734 28.6045 12.3991C30.4274 13.0149 31.8314 13.8894 32.8167 15.0225C34.11 16.5128 34.7566 18.5573 34.7566 21.1561C34.7566 25.4679 32.19 28.2157 27.0568 29.3994C26.7897 29.3019 26.5811 29.1567 26.4301 28.9634C26.2805 28.7718 26.1043 28.3386 25.9843 27.8676C25.8943 27.514 25.8316 27.1177 25.7909 26.6445C25.7729 26.4361 25.7729 25.5544 25.7908 25.3273C25.8092 25.0945 25.8407 24.7999 25.8708 24.5791C25.9032 24.3414 25.9132 24.1543 25.8963 24.1006C25.8895 24.0788 25.8707 24.0496 25.8546 24.0356C25.8304 24.0145 25.8167 24.0102 25.7756 24.0103C25.748 24.0105 25.7006 24.0196 25.669 24.0309C25.6377 24.0421 25.5844 24.065 25.5505 24.0818C25.4609 24.1263 25.1946 24.3033 25.0046 24.4446C24.914 24.5121 24.8038 24.5866 24.7599 24.6102C24.627 24.6814 24.441 24.7267 24.2808 24.7269C24.2279 24.7269 24.2062 24.7302 24.2063 24.7382C24.2066 24.756 25.1184 29.1474 25.2438 29.7371C24.1702 29.8942 23.0058 29.996 21.7505 30.0423C20.5065 30.0916 19.5397 30.1162 18.85 30.1162C18.1603 30.1162 17.5629 30.1101 17.0579 30.0977C16.553 30.0854 15.9741 30.0669 15.3213 30.0423C14.6809 30.03 13.9789 30.0115 13.2152 29.9869C13.0455 29.9841 12.8751 29.9807 12.704 29.9767C12.7953 29.9082 12.8418 29.8185 12.8418 29.709C12.8418 29.5019 12.7128 29.2947 12.5375 29.2201C12.4522 29.1838 12.378 29.1861 12.203 29.2303C11.973 29.2883 11.8342 29.2775 11.7033 29.1913C11.5531 29.0924 11.4384 28.8893 11.2393 28.3694C11.123 28.0658 11.0665 27.8444 11.038 27.5811C11.0206 27.4197 11.0311 27.0949 11.0586 26.9447C11.1168 26.6273 11.2394 26.3257 11.3944 26.1189C11.5829 25.8675 11.7633 25.6911 12.4243 25.1123C13.0156 24.5944 13.1074 24.5082 13.2413 24.3451C13.4585 24.0805 13.5795 23.8616 13.9317 23.0961C14.1185 22.6902 14.1876 22.5302 14.2261 22.4141L14.2502 22.3416L14.5108 22.5823C14.7687 22.8204 15.0129 23.0294 15.2428 23.2089C15.5336 23.436 15.7028 23.5326 16.2245 23.7699C16.9633 24.1059 17.407 24.2572 18.3199 24.4844C19.1018 24.6791 19.4015 24.6958 19.5856 24.5552C19.6768 24.4855 19.7394 24.3094 19.9097 23.6427C20.0041 23.273 20.0216 23.2165 20.0696 23.1257C20.1342 23.0036 20.1853 22.9646 20.2696 22.9736C20.3185 22.9788 20.522 23.042 20.5713 23.0673C20.5868 23.0753 20.6042 23.0935 20.6099 23.1078C20.6319 23.1628 20.5939 23.242 20.4333 23.4758C20.251 23.741 20.2005 23.8525 20.1221 24.1625C19.9786 24.7298 19.9359 25.0529 19.9357 25.5737C19.9355 25.9243 19.9439 26.0428 19.9879 26.313C20.0683 26.8067 20.218 27.2804 20.4826 27.8787C20.6151 28.1781 20.6705 28.2601 20.9935 28.635C21.3844 29.0886 21.5627 29.318 21.6595 29.4922C21.7011 29.5671 21.7078 29.5869 21.7087 29.6382C21.7093 29.6708 21.7131 29.7021 21.7171 29.7078C21.7385 29.7379 21.7906 29.7473 21.9752 29.7544C22.0952 29.7589 22.2649 29.7742 22.4546 29.7974C22.6161 29.8171 22.7946 29.8381 22.8513 29.844C22.9858 29.8579 23.2366 29.8585 23.3149 29.8451C23.4098 29.8288 23.5011 29.7861 23.5343 29.7425C23.5595 29.7093 23.5622 29.6979 23.5622 29.624C23.5622 29.5476 23.5597 29.5378 23.5235 29.4743C23.3882 29.2361 22.9395 29.1192 22.5164 29.2118C22.4569 29.2249 22.3733 29.2377 22.3305 29.2404C22.1943 29.2491 22.1759 29.233 22.0275 28.9749C21.8464 28.6601 21.7858 28.5251 21.7452 28.347C21.6552 27.9521 21.6486 27.45 21.7286 27.0753C21.79 26.7878 21.9072 26.5056 22.0792 26.2313C22.4182 25.6905 22.9391 25.0619 23.5042 24.5115C23.5818 24.4359 23.5841 24.4345 23.6807 24.405C24.4543 24.1694 25.2606 23.7555 25.8318 23.3007C26.6391 22.6581 26.986 21.7742 26.9533 20.4438C26.936 19.7409 26.8065 18.5047 26.6839 17.8722C26.67 17.8007 26.6243 17.5951 26.5822 17.4152C26.4718 16.9432 26.4524 16.7883 26.4523 16.3758C26.4523 16.1207 26.4615 15.9992 26.495 15.8159C26.5401 15.5689 26.615 15.354 26.7427 15.1059C26.8126 14.9701 27.0776 14.5112 27.2642 14.2028C27.5566 13.7197 27.6868 13.4431 27.765 13.1393C27.8101 12.964 27.825 12.8522 27.8256 12.684C27.8261 12.5341 27.8146 12.4528 27.7755 12.3296C27.7711 12.3158 27.7763 12.3085 27.7961 12.3006C27.8106 12.2949 27.8225 12.2857 27.8225 12.2803C27.8225 12.2749 27.8042 12.2436 27.7817 12.2107C27.7124 12.1091 27.7049 12.0659 27.7183 11.8464C27.7309 11.6404 27.7357 11.5938 27.7156 11.5644C27.7078 11.553 27.6962 11.5442 27.6799 11.5296C27.6525 11.5051 27.605 11.4736 27.5743 11.4596C27.5251 11.4372 27.5077 11.4342 27.4251 11.4341C27.3357 11.434 27.3277 11.4357 27.243 11.4722C27.127 11.5222 27.0771 11.5684 26.8695 11.818C26.8469 11.8452 26.8164 11.8648 26.7562 11.891C26.696 11.9172 26.6729 11.9321 26.6706 11.9461C26.6672 11.9668 26.6102 11.9924 26.5243 12.0119C26.4988 12.0176 26.4409 12.0396 26.3956 12.0606C26.0253 12.2327 25.5649 12.337 25.2365 12.3232C25.177 12.3207 25.0389 12.3041 24.9298 12.2863C24.8206 12.2686 24.6421 12.2438 24.5331 12.2314C24.226 12.1963 24.0802 12.1746 23.9125 12.1391C23.78 12.1111 23.7411 12.1064 23.6395 12.1066C23.5544 12.1067 23.5021 12.1115 23.454 12.1236C23.3435 12.1515 23.1408 12.2244 22.944 12.307C22.6175 12.4441 22.5511 12.4805 21.7901 12.9391C21.1122 13.3476 20.9173 13.4434 20.6416 13.5037C20.4974 13.5352 20.4019 13.5442 20.2145 13.5442C20.0679 13.5442 20.0218 13.5403 19.8469 13.5129C19.1708 13.4069 18.7197 13.3728 18.4292 13.4057C18.2293 13.4283 17.88 13.5045 17.88 13.5255C17.88 13.5411 17.9553 13.6944 17.9989 13.7679C18.1523 14.0258 18.3654 14.2405 18.6579 14.4314C19.0213 14.6686 19.284 14.7793 19.5933 14.8253C19.7589 14.8499 20.0593 14.8642 20.3058 14.8593L20.5125 14.8551L20.7134 14.8095C20.9604 14.7533 21.1732 14.7153 21.2035 14.7219C21.2688 14.7362 21.2355 14.8044 21.0826 14.9697C21.0359 15.0202 20.9493 15.1032 20.8902 15.1542L20.7827 15.2469L20.8652 15.3521C21.1208 15.6783 21.2866 16.0059 21.3991 16.4071C21.485 16.7137 21.5127 16.922 21.5037 17.1947C21.4969 17.4 21.4805 17.5081 21.4282 17.693C21.2886 18.1863 20.9636 18.6241 20.4764 18.9754C19.9169 19.3788 19.4389 19.5645 18.533 19.7305C17.9778 19.8322 17.2337 19.86 16.5973 19.8027C15.7712 19.7285 15.2718 19.6372 14.7994 19.4743C14.2814 19.2957 13.7658 19.0019 13.348 18.6474C12.7022 18.0994 12.3256 17.4478 12.2062 16.6715C12.1828 16.5194 12.1797 16.0402 12.2012 15.8919C12.2687 15.426 12.4313 15.0458 12.7298 14.6558C12.9457 14.3737 13.3656 13.9396 13.7275 13.6242C14.0297 13.3608 14.1325 13.2863 14.9179 12.7604C15.5798 12.3173 15.9631 12.0528 16.5406 11.641C17.2268 11.1516 17.3657 11.0455 17.6899 10.7629C18.2946 10.2359 18.6671 9.83448 18.9713 9.38208C19.6404 8.3871 19.9087 7.16575 19.7035 6.04877C19.6153 5.56918 19.4503 5.11529 19.2046 4.6769C19.0711 4.43866 18.9658 4.27866 18.7896 4.04609C18.3866 3.51435 18.0218 3.16359 17.3031 2.61705C16.5367 2.0343 15.9446 1.67331 15.1703 1.31687C15.0598 1.266 14.9247 1.20639 14.8701 1.18441L14.7709 1.14442L14.7272 1.3027C14.5077 2.09911 14.2988 2.65799 14.0784 3.03803C13.9089 3.33016 13.7284 3.55562 13.3356 3.96545C12.6147 4.71755 12.0712 5.19865 11.0024 6.03062C10.649 6.30569 10.2234 6.68063 9.92915 6.97618C9.0604 7.84872 8.38306 8.84712 8.00821 9.8077C7.56976 10.9313 7.42403 12.2239 7.59804 13.4457C7.7775 14.7058 8.31582 15.9655 9.12586 17.0209C9.40592 17.3858 9.72245 17.74 10.0867 18.0962C10.5595 18.5585 11.2546 19.1545 11.7986 19.5641C11.9134 19.6505 12.0071 19.7235 12.007 19.7263C12.0068 19.7292 11.9761 19.7434 11.9387 19.7579C11.8202 19.804 11.6664 19.9097 11.3339 20.1737C10.8497 20.5581 10.3825 21.1093 10.049 21.6893C9.71178 22.276 9.54207 22.8048 9.49254 23.423C9.46957 23.7098 9.48738 24.3534 9.53493 24.9555C9.58592 25.601 9.73887 26.4062 9.93234 27.0477C10.0388 27.4009 10.1244 27.6376 10.2579 27.9483C10.3595 28.1849 10.503 28.5407 10.7042 29.0549C10.914 29.5909 10.9686 29.6975 11.0924 29.8126C11.1377 29.8547 11.1918 29.8933 11.2527 29.9279C11.1435 29.9232 11.0341 29.9182 10.9244 29.913C10.1485 29.8884 9.38485 29.8637 8.63355 29.8391C7.88226 29.8145 7.18022 29.7837 6.52746 29.7467C5.87469 29.7221 5.29582 29.7036 4.79085 29.6913C4.28588 29.6667 3.89791 29.642 3.62695 29.6174V0.18745ZM38.5808 0.18745H59.808V8.53794H50.072V11.2722H59.808V19.3271H50.072V29.6913H38.5808V0.18745ZM63.0411 0.18745H67.2718L81.5341 13.5815L96.1844 0.18745H100.267V29.6913H88.1295V20.1215L80.5919 28.3981L73.2575 20.3432V29.6913H63.0411V0.18745ZM26.5791 13.6466C26.6793 13.3795 26.7362 13.1315 26.7664 12.8296C26.7699 12.7939 26.7714 12.7647 26.7697 12.7648C26.7679 12.7649 26.6992 12.8114 26.6171 12.8682C26.106 13.2214 25.6617 13.4511 24.9634 13.7233C24.4931 13.9067 24.104 14.0908 23.7219 14.3111C23.3958 14.4992 23.1722 14.6933 22.9545 14.9775C22.5823 15.4633 22.4423 16.0013 22.538 16.5771C22.5494 16.646 22.5608 16.7041 22.5632 16.7062C22.5692 16.7114 22.6943 16.639 22.8152 16.5604C22.968 16.4612 23.1065 16.3545 23.291 16.194C23.3845 16.1127 23.4761 16.0394 23.4947 16.031C23.5329 16.0138 23.5712 16.0185 23.5841 16.0419C23.5888 16.0506 23.5929 16.229 23.5931 16.4385C23.5936 16.8489 23.5959 16.872 23.6558 17.0792C23.7099 17.2661 23.8386 17.5949 23.9592 17.8546C24.104 18.1661 24.3123 18.5391 24.5475 18.9082C24.7839 19.2791 24.9149 19.5902 25.015 20.0182C25.1969 20.7958 25.1185 21.586 24.7871 22.3145C24.5476 22.8411 24.2232 23.2734 23.7374 23.7137C23.6807 23.765 23.6413 23.8036 23.6498 23.7994C23.6583 23.7952 23.7278 23.7555 23.8043 23.7112C24.5673 23.2692 25.191 22.7347 25.5886 22.1822C26.0317 21.5662 26.1984 20.973 26.1814 20.0727C26.1709 19.5167 26.1366 19.3467 25.829 18.3247C25.6797 17.8285 25.6134 17.3948 25.6004 16.8283C25.593 16.5068 25.6156 16.0195 25.6544 15.6679C25.7131 15.1344 25.8609 14.7658 26.1923 14.3263C26.3975 14.0541 26.4819 13.9058 26.5791 13.6466ZM14.6994 23.7503C14.7761 23.6342 14.7975 23.6086 14.8303 23.593C14.8895 23.5649 14.9466 23.5872 15.0224 23.6681C15.0854 23.7354 15.1663 23.7903 15.4124 23.9328C15.7491 24.1277 15.8974 24.2093 16.0807 24.3008C16.2914 24.4058 16.6948 24.5823 16.8915 24.6555C17.0535 24.7157 17.1962 24.7766 17.2232 24.7969C17.2485 24.8159 17.2457 24.8544 17.215 24.907C17.2005 24.9318 17.1751 24.9828 17.1586 25.0203C17.123 25.1006 17.0398 25.2245 16.9532 25.326C16.7873 25.5206 16.536 25.7246 16.2058 25.9324C16.0439 26.0343 15.926 26.121 15.7747 26.2498C15.3526 26.6087 15.129 26.9646 15.0616 27.3847C15.0376 27.5347 15.0453 27.8315 15.0774 27.9886C15.1429 28.3097 15.2441 28.5437 15.4454 28.8396C15.6525 29.1439 15.7234 29.2093 15.8737 29.2348C15.9033 29.2398 16.0783 29.2471 16.2625 29.2508L16.5973 29.2577L16.6539 29.283C16.7643 29.3323 16.8715 29.4519 16.9211 29.581C16.9513 29.6597 16.9496 29.7028 16.9153 29.7262C16.8649 29.7608 16.8254 29.7633 16.3583 29.7612C16.0587 29.7598 15.8481 29.7631 15.7318 29.771C15.6355 29.7775 15.5034 29.7811 15.4382 29.7791C15.3348 29.7758 15.313 29.7723 15.2667 29.7515C15.193 29.7183 15.1628 29.6817 15.1037 29.5547C15.0485 29.4362 14.9176 29.204 14.7697 28.9626C14.4466 28.4349 14.2202 27.9379 14.0833 27.4554C13.9641 27.0354 13.9278 26.7241 13.9369 26.2021C13.9428 25.8625 13.9548 25.7354 14.0068 25.4627C14.1116 24.9131 14.3972 24.2068 14.6994 23.7503Z" fill="#242424"/>
</g>
<defs>
<clipPath id="clip0_3260_70483">
<rect width="103" height="30" fill="white"/>
</clipPath>
</defs>
</svg>
